<mxfile host="app.diagrams.net" modified="2023-06-12T05:47:32.441Z" agent="Mozilla/5.0 (Windows NT 10.0; Win64; x64) AppleWebKit/537.36 (KHTML, like Gecko) Chrome/114.0.0.0 Safari/537.36" etag="pivd-xv3eoPmZD3cuUmh" version="21.3.8" type="github">
  <diagram id="C5RBs43oDa-KdzZeNtuy" name="Page-1">
    <mxGraphModel dx="819" dy="458" grid="1" gridSize="10" guides="1" tooltips="1" connect="1" arrows="1" fold="1" page="1" pageScale="1" pageWidth="827" pageHeight="1169" background="#FFFFFF" math="0" shadow="0">
      <root>
        <mxCell id="WIyWlLk6GJQsqaUBKTNV-0" />
        <mxCell id="WIyWlLk6GJQsqaUBKTNV-1" parent="WIyWlLk6GJQsqaUBKTNV-0" />
        <mxCell id="WIyWlLk6GJQsqaUBKTNV-9" value="Yes" style="edgeStyle=orthogonalEdgeStyle;rounded=0;html=1;jettySize=auto;orthogonalLoop=1;fontSize=11;endArrow=block;endFill=0;endSize=8;strokeWidth=1;shadow=0;labelBackgroundColor=none;" parent="WIyWlLk6GJQsqaUBKTNV-1" edge="1">
          <mxGeometry y="10" relative="1" as="geometry">
            <mxPoint as="offset" />
            <mxPoint x="270" y="330" as="sourcePoint" />
          </mxGeometry>
        </mxCell>
        <mxCell id="oNNc4N0uM3lCMOWuqm-G-0" value="CD" style="swimlane;whiteSpace=wrap;html=1;fillColor=#dae8fc;strokeColor=#6c8ebf;" parent="WIyWlLk6GJQsqaUBKTNV-1" vertex="1">
          <mxGeometry x="353" y="490" width="120.5" height="110" as="geometry" />
        </mxCell>
        <mxCell id="EBlw0ripob7yaGCKIbtP-0" value="Sim Klinik &lt;br&gt;Dokter Umum" style="text;html=1;align=center;verticalAlign=middle;resizable=0;points=[];autosize=1;" vertex="1" parent="oNNc4N0uM3lCMOWuqm-G-0">
          <mxGeometry x="10.25" y="38" width="100" height="40" as="geometry" />
        </mxCell>
        <mxCell id="EBlw0ripob7yaGCKIbtP-2" value="" style="endArrow=classic;html=1;rounded=0;" edge="1" parent="WIyWlLk6GJQsqaUBKTNV-1">
          <mxGeometry width="50" height="50" relative="1" as="geometry">
            <mxPoint x="230" y="460" as="sourcePoint" />
            <mxPoint x="350" y="550" as="targetPoint" />
            <Array as="points">
              <mxPoint x="230" y="550" />
              <mxPoint x="270" y="550" />
              <mxPoint x="300" y="550" />
            </Array>
          </mxGeometry>
        </mxCell>
        <mxCell id="EBlw0ripob7yaGCKIbtP-3" value="Resepsionis" style="rounded=0;whiteSpace=wrap;html=1;fillColor=#dae8fc;strokeColor=#6c8ebf;" vertex="1" parent="WIyWlLk6GJQsqaUBKTNV-1">
          <mxGeometry x="180" y="420" width="100" height="40" as="geometry" />
        </mxCell>
        <mxCell id="EBlw0ripob7yaGCKIbtP-4" value="Pasien" style="rounded=0;whiteSpace=wrap;html=1;fillColor=#dae8fc;strokeColor=#6c8ebf;" vertex="1" parent="WIyWlLk6GJQsqaUBKTNV-1">
          <mxGeometry x="590" y="525" width="100" height="40" as="geometry" />
        </mxCell>
        <mxCell id="EBlw0ripob7yaGCKIbtP-6" value="" style="endArrow=classic;html=1;rounded=0;entryX=0.83;entryY=-0.026;entryDx=0;entryDy=0;entryPerimeter=0;" edge="1" parent="WIyWlLk6GJQsqaUBKTNV-1" target="oNNc4N0uM3lCMOWuqm-G-0">
          <mxGeometry width="50" height="50" relative="1" as="geometry">
            <mxPoint x="640" y="520" as="sourcePoint" />
            <mxPoint x="640" y="525" as="targetPoint" />
            <Array as="points">
              <mxPoint x="640" y="440" />
              <mxPoint x="453" y="440" />
            </Array>
          </mxGeometry>
        </mxCell>
        <mxCell id="EBlw0ripob7yaGCKIbtP-7" value="" style="endArrow=classic;html=1;rounded=0;entryX=0.5;entryY=1;entryDx=0;entryDy=0;" edge="1" parent="WIyWlLk6GJQsqaUBKTNV-1" target="EBlw0ripob7yaGCKIbtP-4">
          <mxGeometry width="50" height="50" relative="1" as="geometry">
            <mxPoint x="480" y="590" as="sourcePoint" />
            <mxPoint x="630" y="570" as="targetPoint" />
            <Array as="points">
              <mxPoint x="640" y="590" />
            </Array>
          </mxGeometry>
        </mxCell>
        <mxCell id="EBlw0ripob7yaGCKIbtP-8" value="Dokter" style="rounded=0;whiteSpace=wrap;html=1;fillColor=#dae8fc;strokeColor=#6c8ebf;" vertex="1" parent="WIyWlLk6GJQsqaUBKTNV-1">
          <mxGeometry x="170" y="680" width="100" height="40" as="geometry" />
        </mxCell>
        <mxCell id="EBlw0ripob7yaGCKIbtP-12" value="&lt;span style=&quot;font-size: 8px;&quot;&gt;Meracik Obat&lt;/span&gt;" style="text;html=1;strokeColor=none;fillColor=none;align=center;verticalAlign=middle;whiteSpace=wrap;rounded=0;" vertex="1" parent="WIyWlLk6GJQsqaUBKTNV-1">
          <mxGeometry x="236" y="537" width="73" height="10" as="geometry" />
        </mxCell>
        <mxCell id="EBlw0ripob7yaGCKIbtP-13" value="" style="endArrow=classic;html=1;rounded=0;entryX=1;entryY=0.5;entryDx=0;entryDy=0;" edge="1" parent="WIyWlLk6GJQsqaUBKTNV-1" target="EBlw0ripob7yaGCKIbtP-8">
          <mxGeometry width="50" height="50" relative="1" as="geometry">
            <mxPoint x="410" y="600" as="sourcePoint" />
            <mxPoint x="430" y="610" as="targetPoint" />
            <Array as="points">
              <mxPoint x="410" y="700" />
            </Array>
          </mxGeometry>
        </mxCell>
        <mxCell id="EBlw0ripob7yaGCKIbtP-15" value="" style="endArrow=classic;html=1;rounded=0;exitX=0.199;exitY=-0.043;exitDx=0;exitDy=0;exitPerimeter=0;" edge="1" parent="WIyWlLk6GJQsqaUBKTNV-1" source="EBlw0ripob7yaGCKIbtP-8">
          <mxGeometry width="50" height="50" relative="1" as="geometry">
            <mxPoint x="290" y="640" as="sourcePoint" />
            <mxPoint x="350" y="580" as="targetPoint" />
            <Array as="points">
              <mxPoint x="190" y="580" />
              <mxPoint x="280" y="580" />
            </Array>
          </mxGeometry>
        </mxCell>
        <mxCell id="EBlw0ripob7yaGCKIbtP-16" value="" style="endArrow=classic;html=1;rounded=0;entryX=0.25;entryY=0;entryDx=0;entryDy=0;exitX=1;exitY=0.5;exitDx=0;exitDy=0;" edge="1" parent="WIyWlLk6GJQsqaUBKTNV-1" source="EBlw0ripob7yaGCKIbtP-3" target="oNNc4N0uM3lCMOWuqm-G-0">
          <mxGeometry width="50" height="50" relative="1" as="geometry">
            <mxPoint x="360" y="610" as="sourcePoint" />
            <mxPoint x="410" y="560" as="targetPoint" />
            <Array as="points">
              <mxPoint x="383" y="440" />
            </Array>
          </mxGeometry>
        </mxCell>
        <mxCell id="EBlw0ripob7yaGCKIbtP-17" value="&lt;font style=&quot;font-size: 8px;&quot;&gt;Data Pendaftar&lt;/font&gt;" style="text;html=1;strokeColor=none;fillColor=none;align=center;verticalAlign=middle;whiteSpace=wrap;rounded=0;" vertex="1" parent="WIyWlLk6GJQsqaUBKTNV-1">
          <mxGeometry x="317" y="678" width="66" height="10" as="geometry" />
        </mxCell>
        <mxCell id="EBlw0ripob7yaGCKIbtP-18" value="&lt;font style=&quot;font-size: 8px;&quot;&gt;Data Antrian&lt;/font&gt;" style="text;html=1;strokeColor=none;fillColor=none;align=center;verticalAlign=middle;whiteSpace=wrap;rounded=0;" vertex="1" parent="WIyWlLk6GJQsqaUBKTNV-1">
          <mxGeometry x="317" y="688" width="66" height="10" as="geometry" />
        </mxCell>
        <mxCell id="EBlw0ripob7yaGCKIbtP-19" value="&lt;span style=&quot;font-size: 8px;&quot;&gt;Pendaftaran&lt;/span&gt;" style="text;html=1;strokeColor=none;fillColor=none;align=center;verticalAlign=middle;whiteSpace=wrap;rounded=0;" vertex="1" parent="WIyWlLk6GJQsqaUBKTNV-1">
          <mxGeometry x="570" y="426" width="66" height="10" as="geometry" />
        </mxCell>
        <mxCell id="EBlw0ripob7yaGCKIbtP-20" value="&lt;span style=&quot;font-size: 8px;&quot;&gt;Informasi No Antrian&lt;/span&gt;" style="text;html=1;strokeColor=none;fillColor=none;align=center;verticalAlign=middle;whiteSpace=wrap;rounded=0;" vertex="1" parent="WIyWlLk6GJQsqaUBKTNV-1">
          <mxGeometry x="540" y="590" width="80" height="10" as="geometry" />
        </mxCell>
        <mxCell id="EBlw0ripob7yaGCKIbtP-22" value="&lt;font style=&quot;font-size: 8px;&quot;&gt;Resep Obat&lt;/font&gt;" style="text;html=1;strokeColor=none;fillColor=none;align=center;verticalAlign=middle;whiteSpace=wrap;rounded=0;rotation=-90;" vertex="1" parent="WIyWlLk6GJQsqaUBKTNV-1">
          <mxGeometry x="136" y="613" width="90" height="10" as="geometry" />
        </mxCell>
        <mxCell id="EBlw0ripob7yaGCKIbtP-23" value="&lt;font style=&quot;font-size: 8px;&quot;&gt;Diagnosis Penyakit&lt;/font&gt;" style="text;html=1;strokeColor=none;fillColor=none;align=center;verticalAlign=middle;whiteSpace=wrap;rounded=0;rotation=-90;" vertex="1" parent="WIyWlLk6GJQsqaUBKTNV-1">
          <mxGeometry x="126" y="613" width="90" height="10" as="geometry" />
        </mxCell>
        <mxCell id="EBlw0ripob7yaGCKIbtP-24" value="" style="endArrow=classic;html=1;rounded=0;entryX=0.25;entryY=1;entryDx=0;entryDy=0;" edge="1" parent="WIyWlLk6GJQsqaUBKTNV-1" target="EBlw0ripob7yaGCKIbtP-4">
          <mxGeometry width="50" height="50" relative="1" as="geometry">
            <mxPoint x="480" y="580" as="sourcePoint" />
            <mxPoint x="590" y="540" as="targetPoint" />
            <Array as="points">
              <mxPoint x="560" y="580" />
              <mxPoint x="615" y="580" />
            </Array>
          </mxGeometry>
        </mxCell>
        <mxCell id="EBlw0ripob7yaGCKIbtP-25" value="&lt;span style=&quot;font-size: 8px;&quot;&gt;Obat&lt;/span&gt;" style="text;html=1;strokeColor=none;fillColor=none;align=center;verticalAlign=middle;whiteSpace=wrap;rounded=0;" vertex="1" parent="WIyWlLk6GJQsqaUBKTNV-1">
          <mxGeometry x="500" y="565" width="80" height="10" as="geometry" />
        </mxCell>
        <mxCell id="EBlw0ripob7yaGCKIbtP-26" value="&lt;span style=&quot;font-size: 8px;&quot;&gt;Info Pasien&lt;/span&gt;" style="text;html=1;strokeColor=none;fillColor=none;align=center;verticalAlign=middle;whiteSpace=wrap;rounded=0;rotation=-90;" vertex="1" parent="WIyWlLk6GJQsqaUBKTNV-1">
          <mxGeometry x="411" y="670" width="80" height="10" as="geometry" />
        </mxCell>
        <mxCell id="EBlw0ripob7yaGCKIbtP-27" value="" style="shape=cylinder3;whiteSpace=wrap;html=1;boundedLbl=1;backgroundOutline=1;size=15;" vertex="1" parent="WIyWlLk6GJQsqaUBKTNV-1">
          <mxGeometry x="414" y="740" width="60" height="80" as="geometry" />
        </mxCell>
        <mxCell id="EBlw0ripob7yaGCKIbtP-28" value="" style="endArrow=classic;html=1;rounded=0;exitX=0.75;exitY=1;exitDx=0;exitDy=0;entryX=0.517;entryY=-0.039;entryDx=0;entryDy=0;entryPerimeter=0;" edge="1" parent="WIyWlLk6GJQsqaUBKTNV-1" source="oNNc4N0uM3lCMOWuqm-G-0" target="EBlw0ripob7yaGCKIbtP-27">
          <mxGeometry width="50" height="50" relative="1" as="geometry">
            <mxPoint x="400" y="790" as="sourcePoint" />
            <mxPoint x="450" y="740" as="targetPoint" />
          </mxGeometry>
        </mxCell>
        <mxCell id="EBlw0ripob7yaGCKIbtP-29" value="&lt;span style=&quot;font-size: 8px;&quot;&gt;Melayani Pasien&lt;/span&gt;" style="text;html=1;strokeColor=none;fillColor=none;align=center;verticalAlign=middle;whiteSpace=wrap;rounded=0;" vertex="1" parent="WIyWlLk6GJQsqaUBKTNV-1">
          <mxGeometry x="300" y="426" width="73" height="10" as="geometry" />
        </mxCell>
        <mxCell id="EBlw0ripob7yaGCKIbtP-30" value="&lt;span style=&quot;font-size: 8px;&quot;&gt;Info Laporan&lt;/span&gt;" style="text;html=1;strokeColor=none;fillColor=none;align=center;verticalAlign=middle;whiteSpace=wrap;rounded=0;rotation=-90;" vertex="1" parent="WIyWlLk6GJQsqaUBKTNV-1">
          <mxGeometry x="421" y="668" width="80" height="10" as="geometry" />
        </mxCell>
        <mxCell id="EBlw0ripob7yaGCKIbtP-31" value="" style="endArrow=classic;html=1;rounded=0;" edge="1" parent="WIyWlLk6GJQsqaUBKTNV-1">
          <mxGeometry width="50" height="50" relative="1" as="geometry">
            <mxPoint x="350" y="560" as="sourcePoint" />
            <mxPoint x="210" y="460" as="targetPoint" />
            <Array as="points">
              <mxPoint x="210" y="560" />
            </Array>
          </mxGeometry>
        </mxCell>
        <mxCell id="EBlw0ripob7yaGCKIbtP-32" value="&lt;span style=&quot;font-size: 8px;&quot;&gt;Info Diagnosis Penyakit&lt;/span&gt;" style="text;html=1;strokeColor=none;fillColor=none;align=center;verticalAlign=middle;whiteSpace=wrap;rounded=0;rotation=-90;" vertex="1" parent="WIyWlLk6GJQsqaUBKTNV-1">
          <mxGeometry x="156" y="508" width="87" height="10" as="geometry" />
        </mxCell>
      </root>
    </mxGraphModel>
  </diagram>
</mxfile>
